<svg aria-hidden="true" style="position: absolute; width: 0; height: 0; overflow: hidden;" version="1.1" xmlns="http://www.w3.org/2000/svg" xmlns:xlink="http://www.w3.org/1999/xlink">
<defs>
<symbol id="icon-users" viewBox="0 0 32 32">
    <path stroke-linejoin="round" stroke-linecap="round" stroke-miterlimit="4" stroke-width="2.4"
        d="M22.668 28v-2.667c0-1.414-0.562-2.771-1.562-3.771s-2.357-1.562-3.771-1.562h-10.667c-1.415 0-2.771 0.562-3.771 1.562s-1.562 2.357-1.562 3.771v2.667">
    </path>
    <path stroke-linejoin="round" stroke-linecap="round" stroke-miterlimit="4" stroke-width="2.4"
        d="M11.999 14.667c2.946 0 5.333-2.388 5.333-5.333s-2.388-5.333-5.333-5.333c-2.946 0-5.333 2.388-5.333 5.333s2.388 5.333 5.333 5.333z">
    </path>
    <path stroke-linejoin="round" stroke-linecap="round" stroke-miterlimit="4" stroke-width="2.4"
        d="M30.666 28v-2.667c-0.001-1.182-0.394-2.33-1.118-3.264s-1.738-1.601-2.882-1.896"></path>
    <path stroke-linejoin="round" stroke-linecap="round" stroke-miterlimit="4" stroke-width="2.4"
        d="M21.334 4.173c1.147 0.294 2.164 0.961 2.89 1.896s1.12 2.086 1.12 3.27-0.394 2.335-1.12 3.27c-0.726 0.935-1.743 1.603-2.89 1.896">
    </path>
</symbol>
<symbol id="icon-heart" viewBox="0 0 32 32">
    <path stroke-linejoin="round" stroke-linecap="round" stroke-miterlimit="4" stroke-width="2.4"
        d="M27.787 6.147c-0.681-0.681-1.49-1.222-2.38-1.591s-1.844-0.559-2.807-0.559c-0.963 0-1.917 0.19-2.807 0.559s-1.699 0.909-2.38 1.591l-1.413 1.413-1.413-1.413c-1.376-1.376-3.241-2.148-5.187-2.148s-3.811 0.773-5.187 2.148c-1.376 1.376-2.148 3.241-2.148 5.187s0.773 3.811 2.148 5.187l11.787 11.787 11.787-11.787c0.681-0.681 1.222-1.49 1.591-2.38s0.559-1.844 0.559-2.807c0-0.963-0.19-1.917-0.559-2.807s-0.909-1.699-1.591-2.38z">
    </path>
</symbol>
<symbol id="icon-eye-off" viewBox="0 0 32 32">
    <path stroke-linejoin="round" stroke-linecap="round" stroke-miterlimit="4" stroke-width="2.6667"
        d="M23.92 23.92c-2.279 1.737-5.055 2.7-7.92 2.747-9.333 0-14.667-10.667-14.667-10.667 1.659-3.091 3.959-5.791 6.747-7.92M13.2 5.653c0.918-0.215 1.857-0.322 2.8-0.32 9.333 0 14.667 10.667 14.667 10.667-0.809 1.514-1.775 2.94-2.88 4.253M18.827 18.827c-0.366 0.393-0.808 0.708-1.298 0.927s-1.020 0.336-1.557 0.346-1.071-0.089-1.569-0.291c-0.498-0.201-0.951-0.501-1.33-0.881s-0.679-0.832-0.88-1.33c-0.201-0.498-0.3-1.032-0.29-1.569s0.127-1.067 0.346-1.557c0.219-0.491 0.534-0.932 0.927-1.298">
    </path>
    <path stroke-linejoin="round" stroke-linecap="round" stroke-miterlimit="4" stroke-width="2.6667"
        d="M1.333 1.333l29.333 29.333"></path>
</symbol>
<symbol id="icon-eye" viewBox="0 0 32 32">
    <path stroke-linejoin="round" stroke-linecap="round" stroke-miterlimit="4" stroke-width="2.6667"
        d="M1.333 16c0 0 5.333-10.667 14.667-10.667s14.667 10.667 14.667 10.667c0 0-5.333 10.667-14.667 10.667s-14.667-10.667-14.667-10.667z">
    </path>
    <path stroke-linejoin="round" stroke-linecap="round" stroke-miterlimit="4" stroke-width="2.6667"
        d="M16 20c2.209 0 4-1.791 4-4s-1.791-4-4-4c-2.209 0-4 1.791-4 4s1.791 4 4 4z"></path>
</symbol>
<symbol id="icon-close" viewBox="0 0 32 32">
    <path stroke-linejoin="round" stroke-linecap="round" stroke-miterlimit="4" stroke-width="2.2857" d="M24 8l-16 16">
    </path>
    <path stroke-linejoin="round" stroke-linecap="round" stroke-miterlimit="4" stroke-width="2.2857" d="M8 8l16 16">
    </path>
</symbol>
<symbol id="icon-arrow" viewBox="0 0 32 32">
    <path
        d="M9.706 10.293c0.187 0.188 0.292 0.442 0.292 0.707s-0.105 0.519-0.292 0.707l-3.293 3.293h21.587c0.265 0 0.52 0.105 0.707 0.293s0.293 0.442 0.293 0.707-0.105 0.52-0.293 0.707c-0.188 0.188-0.442 0.293-0.707 0.293h-21.587l3.293 3.293c0.098 0.091 0.177 0.202 0.232 0.325s0.084 0.255 0.086 0.389c0.002 0.134-0.022 0.268-0.073 0.392s-0.125 0.238-0.22 0.333c-0.095 0.095-0.208 0.17-0.333 0.22s-0.258 0.075-0.392 0.073c-0.134-0.002-0.267-0.032-0.389-0.086s-0.233-0.133-0.325-0.232l-5-5c-0.187-0.188-0.292-0.442-0.292-0.707s0.105-0.519 0.292-0.707l5-5c0.188-0.187 0.442-0.292 0.707-0.292s0.519 0.105 0.707 0.292z">
    </path>
</symbol>
<symbol id="icon-search" viewBox="0 0 32 32">
    <path stroke-linejoin="round" stroke-linecap="round" stroke-miterlimit="4" stroke-width="3.4286"
        d="M14.667 25.333c5.891 0 10.667-4.776 10.667-10.667s-4.776-10.667-10.667-10.667c-5.891 0-10.667 4.776-10.667 10.667s4.776 10.667 10.667 10.667z">
    </path>
    <path stroke-linejoin="round" stroke-linecap="round" stroke-miterlimit="4" stroke-width="3.4286"
        d="M28.001 28l-5.8-5.8"></path>
</symbol>
<symbol id="icon-filter" viewBox="0 0 32 32">
    <path stroke-linejoin="round" stroke-linecap="round" stroke-miterlimit="4" stroke-width="3.4286"
        d="M29.336 4h-26.667l10.667 12.613v8.72l5.333 2.667v-11.387l10.667-12.613z"></path>
</symbol>
<symbol id="icon-chevron-down" viewBox="0 0 32 32">
    <path stroke-linejoin="round" stroke-linecap="round" stroke-miterlimit="4" stroke-width="3.4286"
        d="M5.714 12l10.286 10.286 10.286-10.286"></path>
</symbol>
<symbol id="icon-trash" viewBox="0 0 32 32">
    <path stroke-linejoin="round" stroke-linecap="round" stroke-miterlimit="4" stroke-width="2.6" d="M4 8h24"></path>
    <path stroke-linejoin="round" stroke-linecap="round" stroke-miterlimit="4" stroke-width="2.6"
        d="M25.331 8v18.667c0 0.707-0.281 1.385-0.781 1.886s-1.178 0.781-1.886 0.781h-13.333c-0.707 0-1.386-0.281-1.886-0.781s-0.781-1.178-0.781-1.886v-18.667M10.664 8v-2.667c0-0.707 0.281-1.386 0.781-1.886s1.178-0.781 1.886-0.781h5.333c0.707 0 1.386 0.281 1.886 0.781s0.781 1.178 0.781 1.886v2.667">
    </path>
    <path stroke-linejoin="round" stroke-linecap="round" stroke-miterlimit="4" stroke-width="2.6" d="M13.336 14.666v8">
    </path>
    <path stroke-linejoin="round" stroke-linecap="round" stroke-miterlimit="4" stroke-width="2.6" d="M18.664 14.666v8">
    </path>
</symbol>
<symbol id="icon-edit" viewBox="0 0 32 32">
    <path stroke-linejoin="round" stroke-linecap="round" stroke-miterlimit="4" stroke-width="3"
        d="M22.668 4c0.35-0.35 0.766-0.628 1.223-0.817s0.948-0.287 1.443-0.287c0.495 0 0.986 0.098 1.443 0.287s0.873 0.467 1.223 0.817c0.35 0.35 0.628 0.766 0.818 1.223s0.287 0.948 0.287 1.443c0 0.495-0.097 0.986-0.287 1.443s-0.467 0.873-0.818 1.223l-18 18-7.333 2 2-7.333 18-18z">
    </path>
</symbol>
<symbol id="icon-rating" viewBox="0 0 14 14">
   <path fill-rule="evenodd" clip-rule="evenodd" d="M6.19168 1.14006C6.49034 0.422062 7.50901 0.422062 7.80768 1.14006L9.19568 4.47806L12.7983 4.76673C13.5743 4.82873 13.889 5.79673 13.2977 6.3034L10.553 8.65473L11.391 12.1701C11.5717 12.9274 10.7483 13.5254 10.0843 13.1201L6.99968 11.2361L3.91501 13.1201C3.25101 13.5254 2.42768 12.9267 2.60834 12.1701L3.44634 8.65473L0.701676 6.3034C0.110343 5.79673 0.425009 4.82873 1.20101 4.76673L4.80368 4.47806L6.19168 1.14006Z" />
</symbol>
</defs>
</svg>